<?xml version="1.0" encoding="UTF-8" standalone="yes"?>
<!DOCTYPE svg PUBLIC "-//W3C//DTD SVG 1.0//EN" "http://www.w3.org/TR/2001/REC-SVG-20010904/DTD/svg10.dtd">
<svg width="63" height="42" xmlns="http://www.w3.org/2000/svg" xmlns:svg="http://www.w3.org/2000/svg" xmlns:xlink="http://www.w3.org/1999/xlink" xmlns:slic3r="http://slic3r.org/namespaces/slic3r">
  <!-- 
  Generated using Slic3r 1.3.0
  http://slic3r.org/
   -->
  <g id="layer0" slic3r:z="1.75e-07">
    <polygon slic3r:type="contour" points="63,3.25 56,3.25 56,3.897899 55.075,3.897899 54.182376,5.443925 54.149999,5.5 55.042623,7.046026 55.075,7.1021 56,7.1021 56,7.75 63,7.75 63,34.25 56,34.25 56,34.8979 55.075,34.8979 54.182376,36.443927 54.15,36.5 55.042624,38.046028 55.074999,38.1021 56,38.1021 56,38.75 63,38.75 63,42 21,42 21,0 63,0" style="fill: white" />
    <polygon slic3r:type="hole" points="25.575,34.8979 24.682376,36.443927 24.65,36.5 25.542624,38.046028 25.574999,38.1021 27.425,38.1021 28.317623,36.556072 28.35,36.5 27.457375,34.953971 27.425,34.8979" style="fill: black" />
    <polygon slic3r:type="hole" points="40.797895,9.563 40.715592,9.580496 38.446299,10.062901 38.369428,10.097123 36.249999,11.040701 36.181924,11.090158 34.305,12.4538 32.752604,14.177965 32.6963,14.240501 31.536274,16.249627 31.4942,16.322498 30.777302,18.528973 30.751299,18.609002 30.508796,20.916315 30.5,20.999999 30.742503,23.307313 30.751299,23.390997 31.468197,25.597473 31.494199,25.677502 32.654225,27.686627 32.6963,27.759498 34.248695,29.483665 34.305,29.5462 34.373076,29.595658 36.25,30.9593 36.326871,30.993523 38.4463,31.9371 38.528603,31.954595 40.797896,32.437 43.202104,32.437 43.323932,32.411102 43.323932,32.411101 45.5537,31.937099 45.630571,31.902876 47.75,30.9593 47.818075,30.909842 49.695,29.5462 51.247395,27.822032 51.3037,27.759497 52.463727,25.750372 52.505799,25.677502 53.2227,23.471025 53.2487,23.390998 53.491203,21.083684 53.5,21 53.257495,18.692685 53.2487,18.609002 52.531799,16.402525 52.5058,16.322498 51.345772,14.313371 51.303699,14.2405 49.751304,12.516335 49.694999,12.453799 49.626923,12.404341 47.75,11.040701 47.673128,11.006478 45.553699,10.0629 45.471396,10.045404 43.202103,9.563" style="fill: black" />
    <polygon slic3r:type="hole" points="25.575,3.897899 24.682376,5.443925 24.649999,5.5 25.542623,7.046026 25.575,7.1021 27.425,7.1021 28.317623,5.556073 28.35,5.499999 27.457376,3.953973 27.424999,3.897899" style="fill: black" />
  </g>
  <g id="layer1" slic3r:z="5e-07">
    <polygon slic3r:type="contour" points="63,3.25 56,3.25 56,3.897899 55.075,3.897899 54.2425,5.339789 54.15,5.5 55.075,7.1021 56,7.1021 56,7.75 63,7.75 63,34.25 56,34.25 56,34.8979 55.074999,34.8979 54.2425,36.339791 54.15,36.5 54.982499,37.941887 55.075,38.1021 56,38.1021 56,38.75 63,38.75 63,42 21,42 21,37 0,37 0,32 17,32 17,13 21,13 21,0 63,0" style="fill: white" />
    <polygon slic3r:type="hole" points="25.574999,34.8979 24.7425,36.339791 24.65,36.5 25.482499,37.941887 25.575,38.1021 27.425,38.1021 28.257499,36.660208 28.35,36.5 27.5175,35.058112 27.425,34.8979" style="fill: black" />
    <polygon slic3r:type="hole" points="40.797895,9.563 40.562735,9.61299 38.4463,10.0629 38.226672,10.16068 36.25,11.040701 36.0555,11.18201 34.305,12.4538 32.85717,14.06183 32.696299,14.240501 31.628815,16.089348 31.4942,16.322497 30.82559,18.380351 30.7513,18.609002 30.519337,20.816015 30.5,21 30.726169,23.151897 30.7513,23.390998 31.419909,25.448851 31.4942,25.677502 32.576089,27.551297 32.696299,27.759497 34.144127,29.367529 34.304999,29.546199 36.249999,30.959299 36.469631,31.057079 38.4463,31.9371 38.681459,31.987089 40.797896,32.437 43.202104,32.437 43.476788,32.378608 43.476788,32.378607 45.5537,31.937099 45.773327,31.83932 47.75,30.9593 49.695,29.546199 51.142832,27.938167 51.3037,27.759498 52.385592,25.885701 52.5058,25.677501 53.174407,23.619648 53.2487,23.390998 53.474872,21.239099 53.5,21 53.273831,18.848101 53.2487,18.609002 52.580087,16.551147 52.5058,16.322498 51.423911,14.4487 51.3037,14.240501 49.855871,12.632469 49.695,12.4538 49.500499,12.312489 47.75,11.040701 47.530367,10.94292 45.553699,10.062901 45.318539,10.01291 43.202104,9.563" style="fill: black" />
    <polygon slic3r:type="hole" points="25.575,3.897899 24.7425,5.339789 24.65,5.5 25.575,7.1021 27.425,7.1021 28.35,5.499999 27.517499,4.058108 27.424999,3.897899" style="fill: black" />
  </g>
  <g id="layer2" slic3r:z="8e-07">
    <polygon slic3r:type="contour" points="63,3.25 56,3.25 56,3.897899 55.074999,3.897899 54.298,5.243663 54.15,5.5 55.075,7.1021 56,7.1021 56,7.75 63,7.75 63,34.25 56,34.25 56,34.8979 55.075,34.8979 54.15,36.5 55.075,38.1021 56,38.1021 56,38.75 63,38.75 63,42 21,42 21,37 0,37 0,32 17,32 17,13 21,13 21,0 63,0" style="fill: white" />
    <polygon slic3r:type="hole" points="25.575,34.8979 24.65,36.5 25.575,38.1021 27.425,38.1021 28.349999,36.5 27.425,34.8979" style="fill: black" />
    <polygon slic3r:type="hole" points="40.797895,9.563 40.421639,9.642984 38.4463,10.0629 36.25,11.040701 35.9388,11.266796 34.305,12.4538 32.953692,13.954628 32.696299,14.240501 31.686535,15.989378 31.4942,16.322497 30.870164,18.243161 30.7513,18.609001 30.540207,20.61744 30.5,21 30.711091,23.008437 30.7513,23.390997 31.375335,25.311661 31.4942,25.677502 32.503963,27.426377 32.696299,27.759498 34.082793,29.299406 34.305,29.5462 36.25,30.9593 38.4463,31.9371 38.822555,32.017083 40.797896,32.437 43.202104,32.437 43.578359,32.357016 45.553699,31.9371 47.75,30.9593 49.695,29.546199 51.046307,28.04537 51.3037,27.759497 52.313464,26.010621 52.505799,25.677502 53.129835,23.756838 53.2487,23.390998 53.459792,21.382559 53.5,21 53.288907,18.991561 53.2487,18.609002 52.624663,16.688338 52.505799,16.322497 51.496035,14.573619 51.3037,14.240501 49.952392,12.739672 49.694999,12.453799 49.383799,12.227703 47.749999,11.040701 45.553699,10.0629 45.177443,9.982916 43.202104,9.563" style="fill: black" />
    <polygon slic3r:type="hole" points="25.574999,3.897899 24.798,5.243663 24.65,5.5 25.575,7.1021 27.425,7.1021 28.35,5.499999 27.558595,4.129285 27.425,3.897899" style="fill: black" />
  </g>
  <g id="layer3" slic3r:z="1.1e-06">
    <polygon slic3r:type="contour" points="63,3.25 56,3.25 56,3.897899 55.075,3.897899 54.3535,5.147537 54.15,5.5 55.075,7.1021 56,7.1021 56,7.75 63,7.75 63,34.25 56,34.25 56,34.8979 55.075,34.8979 54.353499,36.147536 54.15,36.5 54.871499,37.749639 55.075,38.1021 56,38.1021 56,38.75 63,38.75 63,42 21,42 21,37 0,37 0,32 17,32 17,13 21,13 21,0 63,0" style="fill: white" />
    <polygon slic3r:type="hole" points="25.575,34.8979 24.853499,36.147536 24.65,36.5 25.371499,37.749639 25.575,38.1021 27.425,38.1021 28.1465,36.852463 28.35,36.5 27.628499,35.250359 27.425,34.8979" style="fill: black" />
    <polygon slic3r:type="hole" points="40.797895,9.563 40.280544,9.672977 38.446299,10.062901 37.963111,10.278017 36.25,11.0407 35.822099,11.351583 34.305,12.4538 33.050214,13.847426 32.6963,14.240501 31.758662,15.864458 31.494199,16.322498 30.914738,18.105971 30.7513,18.609001 30.555285,20.47398 30.5,21 30.696013,22.864977 30.7513,23.390998 31.330761,25.174471 31.4942,25.677502 32.431837,27.301457 32.696299,27.759497 33.951087,29.153125 34.304999,29.546199 36.25,30.9593 36.733187,31.174415 38.4463,31.9371 38.963651,32.047077 40.797895,32.437 43.202104,32.437 43.719455,32.327022 45.5537,31.9371 46.036888,31.721983 47.749999,30.9593 49.695,29.546199 50.949784,28.152571 51.303699,27.759498 52.241335,26.135542 52.5058,25.677501 53.085264,23.894027 53.2487,23.390998 53.444711,21.52602 53.5,20.999999 53.303983,19.135021 53.2487,18.609001 52.658037,16.791047 52.658036,16.791047 52.505799,16.322497 51.568159,14.698539 51.3037,14.240501 50.048911,12.846873 49.695,12.4538 49.267099,12.142917 47.75,11.040701 47.266811,10.825584 45.5537,10.062901 45.036348,9.952923 43.202104,9.563" style="fill: black" />
    <polygon slic3r:type="hole" points="25.575,3.897899 24.8535,5.147537 24.65,5.5 25.575,7.1021 27.425,7.1021 28.349999,5.5 27.628499,4.250361 27.424999,3.897899" style="fill: black" />
  </g>
  <g id="layer4" slic3r:z="1.4e-06">
    <polygon slic3r:type="contour" points="63,3.25 56,3.25 56,3.897899 55.075,3.897899 54.409,5.051411 54.15,5.5 55.075,7.1021 56,7.1021 56,7.75 63,7.75 63,34.25 56,34.25 56,34.8979 55.075,34.8979 54.15,36.5 55.075,38.1021 56,38.1021 56,38.75 63,38.75 63,42 21,42 21,37 0,37 0,32 17,32 17,13 21,13 21,0 63,0" style="fill: white" />
    <polygon slic3r:type="hole" points="25.575,34.8979 24.65,36.5 25.575,38.1021 27.425,38.1021 28.349999,36.5 27.425,34.8979" style="fill: black" />
    <polygon slic3r:type="hole" points="40.797895,9.563 40.099923,9.711373 40.099923,9.711374 38.446299,10.062901 36.25,11.040701 35.7054,11.436368 34.304999,12.4538 33.146736,13.740224 32.696299,14.240501 31.830788,15.739538 31.4942,16.322498 30.938089,18.034099 30.7513,18.609002 30.570363,20.33052 30.5,21 30.680935,22.721517 30.7513,23.390998 31.286187,25.037279 31.4942,25.677502 32.359711,27.176539 32.6963,27.759498 33.854563,29.045923 34.305,29.5462 36.25,30.9593 38.4463,31.9371 39.104747,32.077071 40.797896,32.437 43.202104,32.437 43.860551,32.297028 45.5537,31.9371 47.75,30.9593 49.695,29.5462 50.853263,28.259774 51.3037,27.759497 52.169211,26.26046 52.5058,25.677501 53.06191,23.9659 53.2487,23.390997 53.429636,21.669479 53.5,21 53.319063,19.278481 53.2487,18.609001 52.713812,16.96272 52.505799,16.322497 51.640287,14.823459 51.3037,14.2405 50.11025,12.914997 49.694999,12.453799 49.150399,12.058131 47.75,11.040701 45.553699,10.0629 44.895252,9.922929 43.202103,9.563" style="fill: black" />
    <polygon slic3r:type="hole" points="25.575,3.897899 24.909,5.051411 24.65,5.5 25.575,7.1021 27.425,7.1021 28.349999,5.5 27.683999,4.346487 27.425,3.897899" style="fill: black" />
  </g>
  <g id="layer5" slic3r:z="1.7e-06">
    <polygon slic3r:type="contour" points="63,3.25 56,3.25 56,3.897899 55.074999,3.897899 54.4645,4.955285 54.15,5.5 55.075,7.1021 56,7.1021 56,7.75 63,7.75 63,34.25 56,34.25 56,34.8979 55.075,34.8979 54.4645,35.955287 54.15,36.5 54.760499,37.557383 55.074999,38.1021 56,38.1021 56,38.75 63,38.75 63,42 21,42 21,37 0,37 0,32 17,32 17,13 21,13 21,0 63,0" style="fill: white" />
    <polygon slic3r:type="hole" points="25.575,34.8979 24.9645,35.955287 24.65,36.5 25.260499,37.557383 25.574999,38.1021 27.425,38.1021 28.035499,37.044712 28.35,36.5 27.739499,35.442615 27.425,34.8979" style="fill: black" />
    <polygon slic3r:type="hole" points="40.797895,9.563 39.998352,9.732965 38.446299,10.062901 37.699559,10.395353 36.25,11.0407 35.588699,11.521155 34.305,12.453799 33.243258,13.633022 32.6963,14.240501 31.902913,15.614619 31.4942,16.322497 31.003885,17.83159 30.7513,18.609002 30.585441,20.18706 30.5,21 30.665857,22.578057 30.7513,23.390997 31.241613,24.900089 31.4942,25.677502 32.287585,27.051619 32.6963,27.759497 33.758039,28.938721 34.304999,29.5462 36.249999,30.959299 36.996743,31.291751 38.446299,31.9371 39.245843,32.107065 40.797896,32.437 43.202104,32.437 44.041172,32.258632 44.041172,32.258631 45.5537,31.937099 46.30044,31.604647 47.749999,30.9593 49.695,29.5462 50.756744,28.366975 51.3037,27.759497 52.097088,26.385379 52.5058,25.677502 52.996111,24.16841 53.2487,23.390997 53.41456,21.812939 53.5,21 53.334143,19.421941 53.248699,18.609001 52.758383,17.099909 52.5058,16.322498 51.712415,14.948379 51.3037,14.2405 50.241959,13.061277 49.695,12.4538 49.054269,11.98829 47.75,11.040701 47.003255,10.708248 45.5537,10.0629 44.754156,9.892935 43.202104,9.563" style="fill: black" />
    <polygon slic3r:type="hole" points="25.574999,3.897899 24.9645,4.955285 24.65,5.5 25.575,7.1021 27.425,7.1021 28.349999,5.5 27.739499,4.442613 27.425,3.897899" style="fill: black" />
  </g>
  <g id="layer6" slic3r:z="2e-06">
    <polygon slic3r:type="contour" points="63,3.25 56,3.25 56,3.897899 55.075,3.897899 54.52,4.859159 54.15,5.5 55.075,7.1021 56,7.1021 56,7.75 63,7.75 63,34.25 56,34.25 56,34.8979 55.075,34.8979 54.15,36.5 55.075,38.1021 56,38.1021 56,38.75 63,38.75 63,42 21,42 21,37 0,37 0,32 17,32 17,13 21,13 21,0 63,0" style="fill: white" />
    <polygon slic3r:type="hole" points="25.575,34.8979 24.65,36.5 25.575,38.1021 27.425,38.1021 28.349999,36.5 27.425,34.8979" style="fill: black" />
    <polygon slic3r:type="hole" points="40.797895,9.563 39.817731,9.771361 39.817731,9.771362 38.446299,10.062901 36.25,11.040701 35.472,11.60594 34.304999,12.4538 33.33978,13.52582 32.696299,14.240501 31.975039,15.489699 31.4942,16.322497 31.048459,17.6944 30.7513,18.609002 30.600519,20.0436 30.5,21 30.650779,22.434597 30.7513,23.390997 31.197039,24.762899 31.4942,25.677502 32.215459,26.926699 32.6963,27.759498 33.696705,28.870598 34.305,29.5462 36.25,30.9593 38.4463,31.9371 39.386939,32.137059 40.797895,32.437 43.202104,32.437 44.142743,32.23704 45.553699,31.9371 47.75,30.9593 49.695,29.546199 50.660219,28.474178 51.3037,27.759497 52.024959,26.5103 52.505799,25.677502 52.95154,24.305599 53.2487,23.390997 53.39948,21.956399 53.5,20.999999 53.349219,19.565401 53.2487,18.609002 52.802959,17.237099 52.5058,16.322498 51.784539,15.073299 51.3037,14.240501 50.33848,13.16848 49.694999,12.453799 48.916999,11.888559 47.749999,11.040701 45.553699,10.0629 44.61306,9.862941 43.202103,9.563" style="fill: black" />
    <polygon slic3r:type="hole" points="25.575,3.897899 25.02,4.859159 24.65,5.5 25.575,7.1021 27.425,7.1021 28.349999,5.5 27.794999,4.538739 27.424999,3.897899" style="fill: black" />
  </g>
  <g id="layer7" slic3r:z="2.3e-06">
    <polygon slic3r:type="contour" points="63,3.25 56,3.25 56,3.897899 55.074999,3.897899 54.5755,4.763033 54.15,5.5 55.075,7.1021 56,7.1021 56,7.75 63,7.75 63,34.25 56,34.25 56,34.8979 55.075,34.8979 54.575499,35.763032 54.15,36.5 54.649499,37.365135 55.075,38.1021 56,38.1021 56,38.75 63,38.75 63,42 21,42 21,37 0,37 0,32 17,32 17,13 21,13 21,0 63,0" style="fill: white" />
    <polygon slic3r:type="hole" points="25.575,34.8979 25.075499,35.763032 24.65,36.5 25.149499,37.365135 25.575,38.1021 27.424999,38.1021 27.9245,37.236967 28.349999,36.499999 27.8505,35.634864 27.424999,34.8979" style="fill: black" />
    <polygon slic3r:type="hole" points="40.797895,9.563 39.71616,9.792953 38.4463,10.062901 37.506195,10.481437 36.25,11.0407 35.355299,11.690726 34.305,12.4538 33.436302,13.418618 32.696299,14.240501 32.047165,15.364779 31.4942,16.322497 31.093033,17.55721 30.7513,18.609002 30.615597,19.90014 30.5,21 30.635701,22.291137 30.7513,23.390998 31.152465,24.625709 31.4942,25.677502 32.143333,26.801779 32.696299,27.759497 33.564999,28.724317 34.305,29.5462 36.249999,30.959299 37.2603,31.409088 38.4463,31.9371 39.528035,32.167053 40.797896,32.437 43.202104,32.437 44.323364,32.198644 44.323364,32.198643 45.5537,31.937099 46.493804,31.518563 47.749999,30.9593 49.694999,29.5462 50.563696,28.581379 51.303699,27.759498 51.952831,26.63522 52.505799,25.677502 52.906968,24.442789 53.2487,23.390997 53.384404,22.099859 53.5,21 53.364295,19.708861 53.248699,18.609002 52.836333,17.339809 52.836332,17.339809 52.505799,16.322498 51.856663,15.198219 51.3037,14.240501 50.434999,13.275681 49.695,12.4538 48.800299,11.803773 47.75,11.040701 46.739699,10.590912 45.5537,10.062901 44.471964,9.832947 43.202104,9.563" style="fill: black" />
    <polygon slic3r:type="hole" points="25.574999,3.897899 25.0755,4.763033 24.65,5.5 25.575,7.1021 27.425,7.1021 28.349999,5.5 27.850499,4.634865 27.424999,3.897899" style="fill: black" />
  </g>
  <g id="layer8" slic3r:z="2.6e-06">
    <polygon slic3r:type="contour" points="63,3.25 56,3.25 56,3.897899 55.075,3.897899 54.631,4.666907 54.15,5.5 55.075,7.1021 56,7.1021 56,7.75 63,7.75 63,34.25 56,34.25 56,34.8979 55.075,34.8979 54.15,36.5 55.075,38.1021 56,38.1021 56,38.75 63,38.75 63,42 21,42 21,37 0,37 0,32 17,32 17,13 21,13 21,0 63,0" style="fill: white" />
    <polygon slic3r:type="hole" points="25.575,34.8979 24.65,36.5 25.575,38.1021 27.425,38.1021 28.349999,36.5 27.425,34.8979" style="fill: black" />
    <polygon slic3r:type="hole" points="40.797895,9.563 39.575068,9.822948 38.4463,10.0629 36.249999,11.040701 35.2386,11.775511 34.305,12.453799 33.532823,13.311416 32.696299,14.240501 32.119292,15.239859 31.4942,16.322498 31.137607,17.42002 30.751299,18.609002 30.624883,19.811795 30.5,21 30.620623,22.147679 30.7513,23.390998 31.086669,24.4232 31.4942,25.677502 32.071207,26.676859 32.6963,27.759498 33.468475,28.617115 34.305,29.5462 36.25,30.9593 38.4463,31.9371 39.669128,32.197048 40.797895,32.437 43.202104,32.437 44.424932,32.177051 45.553699,31.9371 47.75,30.9593 49.694999,29.5462 50.467176,28.688583 51.3037,27.759497 51.923925,26.685289 52.505799,25.677502 52.862392,24.579979 53.2487,23.390998 53.375116,22.188204 53.5,21 53.379375,19.852319 53.248699,18.609002 52.91333,17.576799 52.5058,16.322498 51.928792,15.32314 51.303699,14.2405 50.531524,13.382884 49.694999,12.453799 48.683599,11.718987 47.75,11.040701 45.553699,10.062901 44.330871,9.802951 43.202104,9.563" style="fill: black" />
    <polygon slic3r:type="hole" points="25.575,3.897899 25.131,4.666907 24.65,5.5 25.575,7.1021 27.425,7.1021 28.349999,5.5 27.905999,4.730991 27.425,3.897899" style="fill: black" />
  </g>
  <g id="layer9" slic3r:z="2.9e-06">
    <polygon slic3r:type="contour" points="63,3.25 56,3.25 56,3.897899 55.075,3.897899 54.6865,4.570781 54.15,5.5 55.075,7.1021 56,7.1021 56,7.75 63,7.75 63,34.25 56,34.25 56,34.8979 55.075,34.8979 54.686499,35.570784 54.149999,36.5 54.5385,37.172884 55.075,38.1021 56,38.1021 56,38.75 63,38.75 63,42 21,42 21,37 0,37 0,32 17,32 17,13 21,13 21,0 63,0" style="fill: white" />
    <polygon slic3r:type="hole" points="25.575,34.8979 25.186499,35.570784 24.649999,36.5 25.0385,37.172884 25.575,38.1021 27.425,38.1021 27.8135,37.429215 28.35,36.5 27.961499,35.827115 27.425,34.8979" style="fill: black" />
    <polygon slic3r:type="hole" points="40.797896,9.563 39.433971,9.852943 38.4463,10.0629 37.172448,10.630024 36.25,11.040701 35.121899,11.860298 34.305,12.4538 33.629344,13.204213 32.696299,14.240501 32.191418,15.114939 31.4942,16.322497 31.182181,17.28283 30.7513,18.609001 30.645754,19.613221 30.5,21 30.605545,22.004219 30.7513,23.390997 31.042095,24.28601 31.4942,25.677502 31.999081,26.551939 32.696299,27.759497 33.371953,28.509911 34.305,29.5462 36.25,30.959299 37.523855,31.526423 38.4463,31.9371 39.810223,32.227041 40.797895,32.437 43.202104,32.437 44.566027,32.147058 45.553699,31.9371 46.827551,31.369976 47.75,30.9593 49.695,29.546199 50.370656,28.795785 51.3037,27.759497 51.808584,26.885059 52.5058,25.677501 52.817815,24.71717 53.2487,23.390997 53.36004,22.331662 53.5,20.999999 53.389759,19.951095 53.2487,18.609001 52.936679,17.648669 52.5058,16.322498 52.000919,15.448058 51.303699,14.2405 50.628048,13.490087 49.695,12.4538 48.566899,11.634202 47.75,11.040701 46.476143,10.473576 45.5537,10.062901 44.2293,9.78136 44.2293,9.781359 43.202104,9.563" style="fill: black" />
    <polygon slic3r:type="hole" points="25.575,3.897899 25.1865,4.570781 24.65,5.5 25.575,7.1021 27.425,7.1021 28.349999,5.5 27.961499,4.827117 27.425,3.897899" style="fill: black" />
  </g>
  <g id="layer10" slic3r:z="3.2e-06">
    <polygon slic3r:type="contour" points="63,3.25 56,3.25 56,3.897899 55.075,3.897899 54.742,4.474655 54.15,5.5 55.075,7.1021 56,7.1021 56,7.75 63,7.75 63,34.25 56,34.25 56,34.8979 55.075,34.8979 54.15,36.5 55.075,38.1021 56,38.1021 56,38.75 63,38.75 63,42 21,42 21,37 0,37 0,32 17,32 17,13 21,13 21,0 63,0" style="fill: white" />
    <polygon slic3r:type="hole" points="25.575,34.8979 24.65,36.5 25.575,38.1021 27.425,38.1021 28.349999,36.5 27.425,34.8979" style="fill: black" />
    <polygon slic3r:type="hole" points="40.797896,9.563 39.292875,9.882937 38.4463,10.0629 36.249999,11.040701 35.0052,11.945083 34.305,12.453799 33.725867,13.097012 32.696299,14.240501 32.263544,14.990019 31.4942,16.322498 31.226756,17.145639 30.7513,18.609001 30.660832,19.469761 30.5,20.999999 30.590467,21.860759 30.7513,23.390998 31.018743,24.214139 31.4942,25.677502 31.926955,26.427019 32.6963,27.759497 33.275432,28.40271 34.305,29.546199 36.25,30.9593 38.446299,31.937099 39.911795,32.248633 39.911795,32.248634 40.797895,32.437 43.202103,32.437 44.707124,32.117063 45.553699,31.9371 47.75,30.9593 49.694999,29.5462 50.274132,28.902987 51.3037,27.759498 51.736456,27.009979 52.5058,25.677501 52.773243,24.85436 53.248699,23.390998 53.339167,22.530238 53.5,21 53.409531,20.139239 53.2487,18.609001 52.981255,17.785859 52.5058,16.322498 52.073043,15.572978 51.3037,14.240501 50.724567,13.597288 49.694999,12.453799 48.4502,11.549417 47.75,11.040701 45.553699,10.062901 44.048679,9.742963 43.202104,9.563" style="fill: black" />
    <polygon slic3r:type="hole" points="25.575,3.897899 25.242,4.474655 24.65,5.5 25.575,7.1021 27.425,7.1021 28.349999,5.5 28.016999,4.923243 27.425,3.897899" style="fill: black" />
  </g>
  <g id="layer11" slic3r:z="3.5e-06">
    <polygon slic3r:type="contour" points="63,3.25 56,3.25 56,3.897899 55.075,3.897899 54.7975,4.378529 54.15,5.5 55.075,7.1021 56,7.1021 56,7.75 63,7.75 63,34.25 56,34.25 56,34.8979 55.075,34.8979 54.797499,35.378528 54.15,36.5 54.427499,36.980631 55.075,38.1021 56,38.1021 56,38.75 63,38.75 63,42 21,42 21,37 0,37 0,32 17,32 17,13 21,13 21,0 63,0" style="fill: white" />
    <polygon slic3r:type="hole" points="25.575,34.8979 25.297499,35.378528 24.65,36.5 24.927499,36.980631 25.575,38.1021 27.424999,38.1021 27.7025,37.621471 28.35,36.499999 28.0725,36.019368 27.425,34.8979" style="fill: black" />
    <polygon slic3r:type="hole" points="40.797896,9.563 39.151779,9.912931 38.4463,10.0629 36.908887,10.747361 36.249999,11.040701 34.888499,12.02987 34.304999,12.4538 33.822391,12.98981 32.6963,14.2405 32.335669,14.8651 31.494199,16.322498 31.27133,17.008449 30.7513,18.609001 30.67591,19.326301 30.5,20.999999 30.575389,21.717299 30.7513,23.390998 30.974169,24.076949 31.494199,25.677501 31.854829,26.302099 32.696299,27.759497 33.178909,28.295507 34.305,29.5462 36.25,30.9593 37.787407,31.643759 38.4463,31.937099 40.052891,32.278627 40.052891,32.278628 40.797895,32.437 43.202103,32.437 44.84822,32.087069 45.553699,31.9371 47.091112,31.252639 47.75,30.959299 49.695,29.546199 50.177607,29.01019 51.3037,27.759497 51.664327,27.1349 52.505799,25.677502 52.717468,25.02603 52.717469,25.02603 53.2487,23.390997 53.324087,22.673698 53.5,20.999999 53.424607,20.282699 53.2487,18.609002 53.047054,17.988369 52.5058,16.322498 52.145167,15.697898 51.303699,14.2405 50.821087,13.70449 49.695,12.4538 48.333499,11.46463 47.75,11.040701 46.212591,10.35624 45.5537,10.062901 43.947108,9.721372 43.947108,9.721371 43.202104,9.563" style="fill: black" />
    <polygon slic3r:type="hole" points="25.575,3.897899 25.2975,4.378529 24.65,5.5 25.575,7.1021 27.425,7.1021 28.349999,5.5 28.072499,5.019369 27.425,3.897899" style="fill: black" />
  </g>
  <g id="layer12" slic3r:z="3.8e-06">
    <polygon slic3r:type="contour" points="63,3.25 56,3.25 56,3.897899 55.074999,3.897899 54.853,4.282403 54.15,5.5 55.075,7.1021 56,7.1021 56,7.75 63,7.75 63,34.25 56,34.25 56,34.8979 55.075,34.8979 54.15,36.5 55.075,38.1021 56,38.1021 56,38.75 63,38.75 63,42 21,42 21,37 0,37 0,32 17,32 17,13 21,13 21,0 63,0" style="fill: white" />
    <polygon slic3r:type="hole" points="25.575,34.8979 24.65,36.5 25.575,38.1021 27.425,38.1021 28.349999,36.5 27.425,34.8979" style="fill: black" />
    <polygon slic3r:type="hole" points="40.797896,9.563 39.010683,9.942925 38.4463,10.0629 36.25,11.040701 34.771799,12.114656 34.305,12.453799 33.918911,12.882608 32.6963,14.240501 32.407795,14.74018 31.494199,16.322498 31.315904,16.871259 30.7513,18.609002 30.690988,19.182841 30.5,20.999999 30.560311,21.573839 30.7513,23.390998 30.940798,23.97424 31.4942,25.677502 31.782703,26.177181 32.696299,27.759497 33.082387,28.188305 34.305,29.5462 36.25,30.9593 38.4463,31.9371 40.233512,32.317024 40.797895,32.437 43.202104,32.437 44.989316,32.057075 45.553699,31.9371 47.75,30.9593 49.694999,29.5462 50.081088,29.117391 51.3037,27.759497 51.592203,27.259818 52.5058,25.677501 52.684095,25.12874 53.2487,23.390997 53.309011,22.817158 53.5,21 53.439687,20.426159 53.2487,18.609001 53.059201,18.025759 52.505799,16.322497 52.217295,15.822818 51.3037,14.240501 50.917611,13.811692 49.695,12.4538 48.216799,11.379844 47.75,11.040701 45.5537,10.062901 43.806012,9.691378 43.806012,9.691377 43.202104,9.563" style="fill: black" />
    <polygon slic3r:type="hole" points="25.574999,3.897899 25.353,4.282403 24.65,5.5 25.575,7.1021 27.425,7.1021 28.349999,5.5 28.127999,5.115495 27.425,3.897899" style="fill: black" />
  </g>
  <g id="layer13" slic3r:z="4.1e-06">
    <polygon slic3r:type="contour" points="63,3.25 56,3.25 56,3.897899 55.075,3.897899 54.9085,4.186277 54.15,5.5 55.075,7.1021 56,7.1021 56,7.75 63,7.75 63,34.25 56,34.25 56,34.8979 55.075,34.8979 54.9085,35.186279 54.15,36.5 54.3165,36.788376 55.074999,38.1021 56,38.1021 56,38.75 63,38.75 63,42 21,42 21,37 0,37 0,32 17,32 17,13 21,13 21,0 63,0" style="fill: white" />
    <polygon slic3r:type="hole" points="25.575,34.8979 25.4085,35.186279 24.65,36.5 24.8165,36.788376 25.574999,38.1021 27.425,38.1021 27.591499,37.81372 28.349999,36.5 28.183499,36.211623 27.425,34.8979" style="fill: black" />
    <polygon slic3r:type="hole" points="40.797896,9.563 38.869587,9.972919 38.446299,10.062901 36.645336,10.864696 36.25,11.040701 34.655099,12.199442 34.304999,12.4538 34.015431,12.775406 32.6963,14.240501 32.479921,14.61526 31.4942,16.322498 31.360478,16.734068 30.7513,18.609001 30.706066,19.039381 30.5,21 30.545233,21.430379 30.7513,23.390998 30.885021,23.802567 31.4942,25.677502 31.724983,26.077211 32.696299,27.759497 32.985866,28.081104 34.304999,29.546199 36.25,30.9593 38.050967,31.761095 38.446299,31.9371 40.335083,32.338615 40.335083,32.338616 40.797895,32.437 43.202103,32.437 45.130412,32.027081 45.5537,31.9371 47.354663,31.135304 47.75,30.959299 49.695,29.546199 49.984568,29.224593 51.3037,27.759498 51.520075,27.384738 52.5058,25.677501 52.639519,25.265932 53.2487,23.390997 53.299729,22.905502 53.299728,22.905502 53.5,20.999999 53.454767,20.569619 53.2487,18.609002 53.114975,18.197431 52.5058,16.322498 52.289423,15.947737 51.303699,14.2405 51.014136,13.918895 49.695,12.453799 48.100099,11.295058 47.749999,11.0407 45.949032,10.238905 45.5537,10.062901 43.664916,9.661384 43.664916,9.661383 43.202104,9.563" style="fill: black" />
    <polygon slic3r:type="hole" points="25.575,3.897899 25.4085,4.186277 24.65,5.5 25.575,7.1021 27.425,7.1021 28.349999,5.5 28.183499,5.211621 27.425,3.897899" style="fill: black" />
  </g>
  <g id="layer14" slic3r:z="4.4e-06">
    <polygon slic3r:type="contour" points="63,3.25 56,3.25 56,3.897899 55.075,3.897899 54.964,4.090151 54.15,5.5 55.075,7.1021 56,7.1021 56,7.75 63,7.75 63,34.25 56,34.25 56,34.8979 55.075,34.8979 54.15,36.5 55.075,38.1021 56,38.1021 56,38.75 63,38.75 63,42 21,42 21,37 0,37 0,32 17,32 17,13 21,13 21,0 63,0" style="fill: white" />
    <polygon slic3r:type="hole" points="25.575,34.8979 24.65,36.5 25.575,38.1021 27.425,38.1021 28.349999,36.5 27.425,34.8979" style="fill: black" />
    <polygon slic3r:type="hole" points="40.797896,9.563 38.728491,10.002913 38.4463,10.0629 36.25,11.0407 34.538399,12.284228 34.305,12.453799 34.111955,12.668204 32.696299,14.240501 32.552048,14.49034 31.4942,16.322497 31.405051,16.596878 30.7513,18.609002 30.721144,18.895921 30.5,20.999999 30.530155,21.286919 30.751299,23.390997 30.840447,23.665377 31.4942,25.677502 31.670967,25.983658 32.6963,27.759498 32.889343,27.973901 34.305,29.5462 36.25,30.9593 38.4463,31.9371 40.515703,32.377011 40.797895,32.437 43.202104,32.437 45.271507,31.997088 45.553699,31.9371 47.75,30.9593 49.694999,29.5462 49.888044,29.331795 51.3037,27.759497 51.447951,27.509658 52.5058,25.677501 52.594948,25.403121 53.2487,23.390998 53.278855,23.104078 53.5,21 53.469843,20.713079 53.2487,18.609002 53.159551,18.334621 52.505799,16.322497 52.361547,16.072657 51.3037,14.240501 51.110655,14.026096 49.694999,12.4538 47.983399,11.210272 47.75,11.040701 45.5537,10.062901 43.484295,9.622987 43.202104,9.563" style="fill: black" />
    <polygon slic3r:type="hole" points="25.575,3.897899 25.464,4.090151 24.65,5.5 25.575,7.1021 27.425,7.1021 28.349999,5.5 28.238999,5.307747 27.424999,3.897899" style="fill: black" />
  </g>
  <g id="layer15" slic3r:z="4.7e-06">
    <polygon slic3r:type="contour" points="63,3.25 56,3.25 56,3.897899 55.075,3.897899 55.0195,3.994025 54.15,5.5 55.075,7.1021 56,7.1021 56,7.75 63,7.75 63,34.25 56,34.25 56,34.8979 55.075,34.8979 55.019499,34.994024 54.15,36.5 54.205499,36.596127 55.075,38.1021 56,38.1021 56,38.75 63,38.75 63,42 21,42 21,37 0,37 0,32 17,32 17,13 21,13 21,0 63,0" style="fill: white" />
    <polygon slic3r:type="hole" points="25.575,34.8979 25.519499,34.994024 24.65,36.5 24.705499,36.596127 25.575,38.1021 27.425,38.1021 27.4805,38.005975 28.35,36.5 28.294499,36.403871 27.424999,34.8979" style="fill: black" />
    <polygon slic3r:type="hole" points="40.797895,9.563 38.587396,10.032906 38.446299,10.062901 36.381776,10.982032 36.25,11.040701 34.421699,12.369014 34.304999,12.4538 34.20848,12.561001 32.696299,14.240501 32.624173,14.365421 31.4942,16.322497 31.449625,16.459688 30.7513,18.609001 30.736222,18.752461 30.5,21 30.515077,21.143459 30.7513,23.390998 30.795873,23.528187 31.4942,25.677502 31.566325,25.802421 32.696299,27.759497 32.792821,27.866699 34.305,29.5462 36.25,30.9593 38.314519,31.878431 38.446299,31.937099 40.617275,32.398603 40.617275,32.398604 40.797895,32.437 43.202103,32.437 45.412604,31.967093 45.5537,31.9371 47.618223,31.017968 47.749999,30.9593 49.695,29.546199 49.791519,29.438998 51.3037,27.759498 51.375824,27.634577 52.5058,25.677501 52.550375,25.540312 53.2487,23.390997 53.263775,23.247538 53.5,21 53.48492,20.85654 53.248699,18.609001 53.204127,18.471811 52.5058,16.322498 52.433672,16.197578 51.303699,14.2405 51.207176,14.133299 49.695,12.4538 47.866699,11.125486 47.749999,11.0407 45.685479,10.121568 45.553699,10.0629 43.343199,9.592993 43.202104,9.563" style="fill: black" />
    <polygon slic3r:type="hole" points="25.575,3.897899 25.5195,3.994025 24.65,5.5 25.575,7.1021 27.425,7.1021 28.349999,5.5 28.294499,5.403873 27.425,3.897899" style="fill: black" />
  </g>
  <g id="layer16" slic3r:z="5e-06">
    <polygon slic3r:type="contour" points="63,3.25 56,3.25 56,3.897899 55.075,3.897899 54.15,5.5 55.075,7.1021 56,7.1021 56,7.75 63,7.75 63,34.25 56,34.25 56,34.8979 55.075,34.8979 54.15,36.5 55.075,38.1021 56,38.1021 56,38.75 63,38.75 63,42 21,42 21,37 0,37 0,32 17,32 17,13 21,13 21,0 63,0" style="fill: white" />
    <polygon slic3r:type="hole" points="25.575,34.8979 24.65,36.5 25.575,38.1021 27.425,38.1021 28.349999,36.5 27.425,34.8979" style="fill: black" />
    <polygon slic3r:type="hole" points="40.797895,9.563 38.4463,10.0629 36.249999,11.040701 34.305,12.453799 32.6963,14.240501 31.4942,16.322498 30.7513,18.609002 30.499999,21 30.7513,23.390997 31.4942,25.677502 32.6963,27.759498 34.304999,29.546199 36.25,30.9593 38.4463,31.9371 40.797895,32.437 43.202104,32.437 45.553699,31.9371 47.75,30.9593 49.695,29.546199 51.303699,27.759498 52.505799,25.677502 53.2487,23.390997 53.5,21 53.2487,18.609002 52.5058,16.322498 51.303699,14.240501 49.694999,12.453799 47.75,11.040701 45.553699,10.0629 43.202104,9.563" style="fill: black" />
    <polygon slic3r:type="hole" points="25.575,3.897899 24.65,5.5 25.575,7.1021 27.425,7.1021 28.35,5.5 27.425,3.897899" style="fill: black" />
  </g>
  <g id="layer17" slic3r:z="5.3e-06">
    <polygon slic3r:type="contour" points="22,37 0,37 0,32 17,32 17,13 22,13" style="fill: white" />
  </g>
  <g id="layer18" slic3r:z="5.6e-06">
    <polygon slic3r:type="contour" points="22,37 0,37 0,32 17,32 17,13 22,13" style="fill: white" />
  </g>
  <g id="layer19" slic3r:z="5.9e-06">
    <polygon slic3r:type="contour" points="22,37 0,37 0,32 17,32 17,13 22,13" style="fill: white" />
  </g>
  <g id="layer20" slic3r:z="6.2e-06">
    <polygon slic3r:type="contour" points="22,37 0,37 0,32 17,32 17,13 22,13" style="fill: white" />
  </g>
  <g id="layer21" slic3r:z="6.5e-06">
    <polygon slic3r:type="contour" points="22,37 0,37 0,32 17,32 17,13 22,13" style="fill: white" />
  </g>
  <g id="layer22" slic3r:z="6.8e-06">
    <polygon slic3r:type="contour" points="22,37 0,37 0,32 17,32 17,13 22,13" style="fill: white" />
  </g>
  <g id="layer23" slic3r:z="7.1e-06">
    <polygon slic3r:type="contour" points="22,37 0,37 0,32 17,32 17,13 22,13" style="fill: white" />
  </g>
  <g id="layer24" slic3r:z="7.4e-06">
    <polygon slic3r:type="contour" points="22,37 0,37 0,32 17,32 17,13 22,13" style="fill: white" />
  </g>
  <g id="layer25" slic3r:z="7.7e-06">
    <polygon slic3r:type="contour" points="22,37 0,37 0,32 17,32 17,13 22,13" style="fill: white" />
  </g>
  <g id="layer26" slic3r:z="8e-06">
    <polygon slic3r:type="contour" points="22,37 0,37 0,32 17,32 17,13 22,13" style="fill: white" />
  </g>
  <g id="layer27" slic3r:z="8.3e-06">
    <polygon slic3r:type="contour" points="22,37 0,37 0,32 17,32 17,13 22,13" style="fill: white" />
  </g>
  <g id="layer28" slic3r:z="8.6e-06">
    <polygon slic3r:type="contour" points="22,37 0,37 0,32 17,32 17,13 22,13" style="fill: white" />
  </g>
  <g id="layer29" slic3r:z="8.9e-06">
    <polygon slic3r:type="contour" points="22,37 8.256812,37 8.256812,35 5.743194,35 5.743194,37 0,37 0,32 17,32 17,13 22,13" style="fill: white" />
  </g>
  <g id="layer30" slic3r:z="9.2e-06">
    <polygon slic3r:type="contour" points="22,37 9.126614,37 9.126614,35 4.873388,35 4.873388,37 0,37 0,32 17,32 17,13 22,13" style="fill: white" />
  </g>
  <g id="layer31" slic3r:z="9.5e-06">
    <polygon slic3r:type="contour" points="22,37 9.575602,37 9.575602,35 4.42439,35 4.42439,37 0,37 0,32 17,32 17,13 22,13" style="fill: white" />
  </g>
  <g id="layer32" slic3r:z="9.8e-06">
    <polygon slic3r:type="contour" points="22,37 10.024588,37 10.024588,35 3.975392,35 3.975392,37 0,37 0,32 17,32 17,13 22,13" style="fill: white" />
  </g>
  <g id="layer33" slic3r:z="1.01e-05">
    <polygon slic3r:type="contour" points="22,37 10.449161,37 10.449161,35 3.55081,35 3.55081,37 0,37 0,32 17,32 17,13 22,13" style="fill: white" />
  </g>
  <g id="layer34" slic3r:z="1.04e-05">
    <polygon slic3r:type="contour" points="22,37 10.649612,37 10.649612,35 3.350366,35 3.350366,37 0,37 0,32 17,32 17,13 22,13" style="fill: white" />
  </g>
  <g id="layer35" slic3r:z="1.07e-05">
    <polygon slic3r:type="contour" points="22,37 10.850063,37 10.850063,35 3.149922,35 3.149922,37 0,37 0,32 17,32 17,13 22,13" style="fill: white" />
  </g>
  <g id="layer36" slic3r:z="1.1e-05">
    <polygon slic3r:type="contour" points="5.812926,35 2.949479,35 2.949479,37 0,37 0,32 5.812926,32" style="fill: white" />
    <polygon slic3r:type="contour" points="22,37 11.050515,37 11.050515,35 8.187035,35 8.187035,32 17,32 17,13 22,13" style="fill: white" />
  </g>
  <g id="layer37" slic3r:z="1.13e-05">
    <polygon slic3r:type="contour" points="5.455403,35 2.749035,35 2.749035,37 0,37 0,32 5.455403,32" style="fill: white" />
    <polygon slic3r:type="contour" points="22,37 11.250966,37 11.250966,35 8.544561,35 8.544561,32 17,32 17,13 22,13" style="fill: white" />
  </g>
  <g id="layer38" slic3r:z="1.16e-05">
    <polygon slic3r:type="contour" points="5.097879,35 2.548592,35 2.548592,37 0,37 0,32 5.097879,32" style="fill: white" />
    <polygon slic3r:type="contour" points="22,37 11.451417,37 11.451417,35 8.902087,35 8.902087,32 17,32 17,13 22,13" style="fill: white" />
  </g>
  <g id="layer39" slic3r:z="1.19e-05">
    <polygon slic3r:type="contour" points="4.740356,35 2.468274,35 2.468274,37 0,37 0,32 4.740356,32" style="fill: white" />
    <polygon slic3r:type="contour" points="22,37 11.531734,37 11.531734,35 9.259613,35 9.259613,32 17,32 17,13 22,13" style="fill: white" />
  </g>
  <g id="layer40" slic3r:z="1.22e-05">
    <polygon slic3r:type="contour" points="4.509761,35 2.408597,35 2.408597,37 0,37 0,32 4.509761,32" style="fill: white" />
    <polygon slic3r:type="contour" points="22,37 11.591409,37 11.591409,35 9.490211,35 9.490211,32 17,32 17,13 22,13" style="fill: white" />
  </g>
  <g id="layer41" slic3r:z="1.25e-05">
    <polygon slic3r:type="contour" points="4.456868,35 2.348921,35 2.348921,37 0,37 0,32 4.456868,32" style="fill: white" />
    <polygon slic3r:type="contour" points="22,37 11.651084,37 11.651084,35 9.543109,35 9.543109,32 17,32 17,13 22,13" style="fill: white" />
  </g>
  <g id="layer42" slic3r:z="1.28e-05">
    <polygon slic3r:type="contour" points="4.403974,35 2.289244,35 2.289244,37 0,37 0,32 4.403974,32" style="fill: white" />
    <polygon slic3r:type="contour" points="22,37 11.710759,37 11.710759,35 9.596007,35 9.596007,32 17,32 17,13 22,13" style="fill: white" />
  </g>
  <g id="layer43" slic3r:z="1.31e-05">
    <polygon slic3r:type="contour" points="4.351081,35 2.229568,35 2.229568,37 0,37 0,32 4.351081,32" style="fill: white" />
    <polygon slic3r:type="contour" points="22,37 11.770434,37 11.770434,35 9.648905,35 9.648905,32 17,32 17,13 22,13" style="fill: white" />
  </g>
  <g id="layer44" slic3r:z="1.34e-05">
    <polygon slic3r:type="contour" points="4.298188,35 2.169891,35 2.169891,37 0,37 0,32 4.298188,32" style="fill: white" />
    <polygon slic3r:type="contour" points="22,37 11.830108,37 11.830108,35 9.701803,35 9.701803,32 17,32 17,13 22,13" style="fill: white" />
  </g>
  <g id="layer45" slic3r:z="1.37e-05">
    <polygon slic3r:type="contour" points="4.245294,35 2.189783,35 2.189783,37 0,37 0,32 4.245294,32" style="fill: white" />
    <polygon slic3r:type="contour" points="22,37 11.810217,37 11.810217,35 9.754701,35 9.754701,32 17,32 17,13 22,13" style="fill: white" />
  </g>
  <g id="layer46" slic3r:z="1.4e-05">
    <polygon slic3r:type="contour" points="4.196245,35 2.24946,35 2.24946,37 0,37 0,32 4.196245,32" style="fill: white" />
    <polygon slic3r:type="contour" points="22,37 11.750542,37 11.750542,35 9.803756,35 9.803756,32 17,32 17,13 22,13" style="fill: white" />
  </g>
  <g id="layer47" slic3r:z="1.43e-05">
    <polygon slic3r:type="contour" points="4.369457,35 2.309137,35 2.309137,37 0,37 0,32 4.369457,32" style="fill: white" />
    <polygon slic3r:type="contour" points="22,37 11.690867,37 11.690867,35 9.63055,35 9.63055,32 17,32 17,13 22,13" style="fill: white" />
  </g>
  <g id="layer48" slic3r:z="1.46e-05">
    <polygon slic3r:type="contour" points="4.54267,35 2.368813,35 2.368813,37 0,37 0,32 4.54267,32" style="fill: white" />
    <polygon slic3r:type="contour" points="22,37 11.631192,37 11.631192,35 9.457344,35 9.457344,32 17,32 17,13 22,13" style="fill: white" />
  </g>
  <g id="layer49" slic3r:z="1.49e-05">
    <polygon slic3r:type="contour" points="4.715883,35 2.42849,35 2.42849,37 0,37 0,32 4.715883,32" style="fill: white" />
    <polygon slic3r:type="contour" points="22,37 11.571518,37 11.571518,35 9.284139,35 9.284139,32 17,32 17,13 22,13" style="fill: white" />
  </g>
  <g id="layer50" slic3r:z="1.52e-05">
    <polygon slic3r:type="contour" points="4.889096,35 2.488166,35 2.488166,37 0,37 0,32 4.889096,32" style="fill: white" />
    <polygon slic3r:type="contour" points="22,37 11.511843,37 11.511843,35 9.110933,35 9.110933,32 17,32 17,13 22,13" style="fill: white" />
  </g>
  <g id="layer51" slic3r:z="1.55e-05">
    <polygon slic3r:type="contour" points="5.062308,35 2.615406,35 2.615406,37 0,37 0,32 5.062308,32" style="fill: white" />
    <polygon slic3r:type="contour" points="22,37 11.3846,37 11.3846,35 8.937728,35 8.937728,32 17,32 17,13 22,13" style="fill: white" />
  </g>
  <g id="layer52" slic3r:z="1.58e-05">
    <polygon slic3r:type="contour" points="5.488919,35 2.81585,35 2.81585,37 0,37 0,32 5.488919,32" style="fill: white" />
    <polygon slic3r:type="contour" points="22,37 11.184149,37 11.184149,35 8.511114,35 8.511114,32 17,32 17,13 22,13" style="fill: white" />
  </g>
  <g id="layer53" slic3r:z="1.61e-05">
    <polygon slic3r:type="contour" points="6.313145,35 3.016293,35 3.016293,37 0,37 0,32 6.313145,32" style="fill: white" />
    <polygon slic3r:type="contour" points="22,37 10.983698,37 10.983698,35 7.68687,35 7.68687,32 17,32 17,13 22,13" style="fill: white" />
  </g>
  <g id="layer54" slic3r:z="1.64e-05">
    <polygon slic3r:type="contour" points="22,37 10.783246,37 10.783246,35 3.216737,35 3.216737,37 0,37 0,32 17,32 17,13 22,13" style="fill: white" />
  </g>
  <g id="layer55" slic3r:z="1.67e-05">
    <polygon slic3r:type="contour" points="22,37 10.582794,37 10.582794,35 3.417181,35 3.417181,37 0,37 0,32 17,32 17,13 22,13" style="fill: white" />
  </g>
  <g id="layer56" slic3r:z="1.7e-05">
    <polygon slic3r:type="contour" points="22,37 10.323914,37 10.323914,35 3.676059,35 3.676059,37 0,37 0,32 17,32 17,13 22,13" style="fill: white" />
  </g>
  <g id="layer57" slic3r:z="1.73e-05">
    <polygon slic3r:type="contour" points="22,37 9.874929,37 9.874929,35 4.125055,35 4.125055,37 0,37 0,32 17,32 17,13 22,13" style="fill: white" />
  </g>
  <g id="layer58" slic3r:z="1.76e-05">
    <polygon slic3r:type="contour" points="22,37 9.425945,37 9.425945,35 4.574051,35 4.574051,37 0,37 0,32 17,32 17,13 22,13" style="fill: white" />
  </g>
  <g id="layer59" slic3r:z="1.79e-05">
    <polygon slic3r:type="contour" points="22,37 8.97696,37 8.97696,35 5.023046,35 5.023046,37 0,37 0,32 17,32 17,13 22,13" style="fill: white" />
  </g>
  <g id="layer60" slic3r:z="1.82e-05">
    <polygon slic3r:type="contour" points="22,37 7.754093,37 7.754093,35 6.24591,35 6.24591,37 0,37 0,32 17,32 17,13 22,13" style="fill: white" />
  </g>
  <g id="layer61" slic3r:z="1.85e-05">
    <polygon slic3r:type="contour" points="22,37 0,37 0,32 17,32 17,13 22,13" style="fill: white" />
  </g>
  <g id="layer62" slic3r:z="1.88e-05">
    <polygon slic3r:type="contour" points="22,21.245912 20,21.245912 20,22.754088 22,22.754088 22,37 0,37 0,32 17,32 17,13 22,13" style="fill: white" />
  </g>
  <g id="layer63" slic3r:z="1.91e-05">
    <polygon slic3r:type="contour" points="22,20.023048 20,20.023048 20,23.976952 22,23.976952 22,37 0,37 0,32 17,32 17,13 22,13" style="fill: white" />
  </g>
  <g id="layer64" slic3r:z="1.94e-05">
    <polygon slic3r:type="contour" points="22,19.574052 20,19.574052 20,24.425948 22,24.425948 22,37 0,37 0,32 17,32 17,13 22,13" style="fill: white" />
  </g>
  <g id="layer65" slic3r:z="1.97e-05">
    <polygon slic3r:type="contour" points="22,19.125056 20,19.125056 20,24.874944 22,24.874944 22,37 0,37 0,32 17,32 17,13 22,13" style="fill: white" />
  </g>
  <g id="layer66" slic3r:z="2e-05">
    <polygon slic3r:type="contour" points="22,18.67606 20,18.67606 20,25.32394 22,25.32394 22,37 0,37 0,32 17,32 17,13 22,13" style="fill: white" />
  </g>
  <g id="layer67" slic3r:z="2.03e-05">
    <polygon slic3r:type="contour" points="22,18.41718 20,18.41718 20,25.58282 22,25.58282 22,37 0,37 0,32 17,32 17,13 22,13" style="fill: white" />
  </g>
  <g id="layer68" slic3r:z="2.06e-05">
    <polygon slic3r:type="contour" points="22,18.216738 20,18.216738 20,25.783262 22,25.783262 22,35 17,35 17,13 22,13" style="fill: white" />
  </g>
  <g id="layer69" slic3r:z="2.09e-05">
    <polygon slic3r:type="contour" points="22,18.016294 20,18.016294 20,21.313144 17,21.313144 17,13 22,13" style="fill: white" />
    <polygon slic3r:type="contour" points="20,25.983706 22,25.983706 22,35 17,35 17,22.686856 20,22.686856" style="fill: white" />
  </g>
  <g id="layer70" slic3r:z="2.12e-05">
    <polygon slic3r:type="contour" points="22,17.81585 20,17.81585 20,20.488916 17,20.488916 17,13 22,13" style="fill: white" />
    <polygon slic3r:type="contour" points="20,26.18415 22,26.18415 22,35 17,35 17,23.511084 20,23.511084" style="fill: white" />
  </g>
  <g id="layer71" slic3r:z="2.15e-05">
    <polygon slic3r:type="contour" points="22,17.615406 20,17.615406 20,20.062306 17,20.062306 17,13 22,13" style="fill: white" />
    <polygon slic3r:type="contour" points="20,26.384594 22,26.384594 22,35 17,35 17,23.937694 20,23.937694" style="fill: white" />
  </g>
  <g id="layer72" slic3r:z="2.18e-05">
    <polygon slic3r:type="contour" points="22,17.488166 20,17.488166 20,19.889092 17,19.889092 17,13 22,13" style="fill: white" />
    <polygon slic3r:type="contour" points="20,26.511834 22,26.511834 22,35 17,35 17,24.110908 20,24.110908" style="fill: white" />
  </g>
  <g id="layer73" slic3r:z="2.21e-05">
    <polygon slic3r:type="contour" points="22,17.42849 20,17.42849 20,19.71588 17,19.71588 17,13 22,13" style="fill: white" />
    <polygon slic3r:type="contour" points="20,26.57151 22,26.57151 22,35 17,35 17,24.28412 20,24.28412" style="fill: white" />
  </g>
  <g id="layer74" slic3r:z="2.24e-05">
    <polygon slic3r:type="contour" points="22,17.368814 20,17.368814 20,19.542668 17,19.542668 17,13 22,13" style="fill: white" />
    <polygon slic3r:type="contour" points="20,26.631186 22,26.631186 22,35 17,35 17,24.457332 20,24.457332" style="fill: white" />
  </g>
  <g id="layer75" slic3r:z="2.27e-05">
    <polygon slic3r:type="contour" points="22,17.309138 20,17.309138 20,19.369456 17,19.369456 17,13 22,13" style="fill: white" />
    <polygon slic3r:type="contour" points="20,26.690862 22,26.690862 22,35 17,35 17,24.630544 20,24.630544" style="fill: white" />
  </g>
  <g id="layer76" slic3r:z="2.3e-05">
    <polygon slic3r:type="contour" points="22,17.249462 20,17.249462 20,19.196242 17,19.196242 17,13 22,13" style="fill: white" />
    <polygon slic3r:type="contour" points="20,26.750538 22,26.750538 22,35 17,35 17,24.803758 20,24.803758" style="fill: white" />
  </g>
  <g id="layer77" slic3r:z="2.33e-05">
    <polygon slic3r:type="contour" points="22,17.189786 20,17.189786 20,19.245292 17,19.245292 17,13 22,13" style="fill: white" />
    <polygon slic3r:type="contour" points="20,26.810214 22,26.810214 22,35 17,35 17,24.754708 20,24.754708" style="fill: white" />
  </g>
  <g id="layer78" slic3r:z="2.36e-05">
    <polygon slic3r:type="contour" points="22,17.169894 20,17.169894 20,19.298186 17,19.298186 17,13 22,13" style="fill: white" />
    <polygon slic3r:type="contour" points="20,26.830106 22,26.830106 22,35 17,35 17,24.701814 20,24.701814" style="fill: white" />
  </g>
  <g id="layer79" slic3r:z="2.39e-05">
    <polygon slic3r:type="contour" points="22,17.22957 20,17.22957 20,19.35108 17,19.35108 17,13 22,13" style="fill: white" />
    <polygon slic3r:type="contour" points="20,26.77043 22,26.77043 22,35 17,35 17,24.64892 20,24.64892" style="fill: white" />
  </g>
  <g id="layer80" slic3r:z="2.42e-05">
    <polygon slic3r:type="contour" points="22,17.289246 20,17.289246 20,19.403974 17,19.403974 17,13 22,13" style="fill: white" />
    <polygon slic3r:type="contour" points="20,26.710754 22,26.710754 22,35 17,35 17,24.596026 20,24.596026" style="fill: white" />
  </g>
  <g id="layer81" slic3r:z="2.45e-05">
    <polygon slic3r:type="contour" points="22,17.348922 20,17.348922 20,19.456868 17,19.456868 17,13 22,13" style="fill: white" />
    <polygon slic3r:type="contour" points="20,26.651078 22,26.651078 22,35 17,35 17,24.543132 20,24.543132" style="fill: white" />
  </g>
  <g id="layer82" slic3r:z="2.48e-05">
    <polygon slic3r:type="contour" points="22,17.408598 20,17.408598 20,19.50976 17,19.50976 17,13 22,13" style="fill: white" />
    <polygon slic3r:type="contour" points="20,26.591402 22,26.591402 22,35 17,35 17,24.49024 20,24.49024" style="fill: white" />
  </g>
  <g id="layer83" slic3r:z="2.51e-05">
    <polygon slic3r:type="contour" points="22,17.468274 20,17.468274 20,19.740356 17,19.740356 17,13 22,13" style="fill: white" />
    <polygon slic3r:type="contour" points="20,26.531726 22,26.531726 22,35 17,35 17,24.259644 20,24.259644" style="fill: white" />
  </g>
  <g id="layer84" slic3r:z="2.54e-05">
    <polygon slic3r:type="contour" points="22,17.548592 20,17.548592 20,20.09788 17,20.09788 17,13 22,13" style="fill: white" />
    <polygon slic3r:type="contour" points="20,26.451408 22,26.451408 22,35 17,35 17,23.90212 20,23.90212" style="fill: white" />
  </g>
  <g id="layer85" slic3r:z="2.57e-05">
    <polygon slic3r:type="contour" points="22,17.749036 20,17.749036 20,20.455402 17,20.455402 17,13 22,13" style="fill: white" />
    <polygon slic3r:type="contour" points="20,26.250964 22,26.250964 22,35 17,35 17,23.544598 20,23.544598" style="fill: white" />
  </g>
  <g id="layer86" slic3r:z="2.6e-05">
    <polygon slic3r:type="contour" points="22,17.949478 20,17.949478 20,20.812926 17,20.812926 17,13 22,13" style="fill: white" />
    <polygon slic3r:type="contour" points="20,26.050522 22,26.050522 22,35 17,35 17,23.187074 20,23.187074" style="fill: white" />
  </g>
  <g id="layer87" slic3r:z="2.63e-05">
    <polygon slic3r:type="contour" points="22,18.149922 20,18.149922 20,25.850078 22,25.850078 22,35 17,35 17,13 22,13" style="fill: white" />
  </g>
  <g id="layer88" slic3r:z="2.66e-05">
    <polygon slic3r:type="contour" points="22,18.350366 20,18.350366 20,25.649634 22,25.649634 22,35 17,35 17,13 22,13" style="fill: white" />
  </g>
  <g id="layer89" slic3r:z="2.69e-05">
    <polygon slic3r:type="contour" points="22,18.55081 20,18.55081 20,25.44919 22,25.44919 22,35 17,35 17,13 22,13" style="fill: white" />
  </g>
  <g id="layer90" slic3r:z="2.72e-05">
    <polygon slic3r:type="contour" points="22,18.975392 20,18.975392 20,25.024608 22,25.024608 22,35 17,35 17,13 22,13" style="fill: white" />
  </g>
  <g id="layer91" slic3r:z="2.75e-05">
    <polygon slic3r:type="contour" points="22,19.424392 20,19.424392 20,24.575608 22,24.575608 22,35 17,35 17,13 22,13" style="fill: white" />
  </g>
  <g id="layer92" slic3r:z="2.78e-05">
    <polygon slic3r:type="contour" points="22,19.87339 20,19.87339 20,24.12661 22,24.12661 22,35 17,35 17,13 22,13" style="fill: white" />
  </g>
  <g id="layer93" slic3r:z="2.81e-05">
    <polygon slic3r:type="contour" points="22,20.743196 20,20.743196 20,23.256804 22,23.256804 22,35 17,35 17,13 22,13" style="fill: white" />
  </g>
  <g id="layer94" slic3r:z="2.84e-05">
    <polygon slic3r:type="contour" points="22,35 17,35 17,13 22,13" style="fill: white" />
  </g>
  <g id="layer95" slic3r:z="2.87e-05">
    <polygon slic3r:type="contour" points="22,35 17,35 17,13 22,13" style="fill: white" />
  </g>
  <g id="layer96" slic3r:z="2.9e-05">
    <polygon slic3r:type="contour" points="22,35 17,35 17,13 22,13" style="fill: white" />
  </g>
  <g id="layer97" slic3r:z="2.93e-05">
    <polygon slic3r:type="contour" points="22,35 17,35 17,13 22,13" style="fill: white" />
  </g>
  <g id="layer98" slic3r:z="2.96e-05">
    <polygon slic3r:type="contour" points="22,35 17,35 17,13 22,13" style="fill: white" />
  </g>
  <g id="layer99" slic3r:z="2.99e-05">
    <polygon slic3r:type="contour" points="22,35 17,35 17,13 22,13" style="fill: white" />
  </g>
  <g id="layer100" slic3r:z="3.02e-05">
    <polygon slic3r:type="contour" points="22,35 17,35 17,13 22,13" style="fill: white" />
  </g>
  <g id="layer101" slic3r:z="3.05e-05">
    <polygon slic3r:type="contour" points="22,35 17,35 17,13 22,13" style="fill: white" />
  </g>
</svg>
